<?xml version="1.0" standalone="no"?><!DOCTYPE svg PUBLIC "-//W3C//DTD SVG 1.1//EN" "http://www.w3.org/Graphics/SVG/1.1/DTD/svg11.dtd"><svg xmlns:xlink="http://www.w3.org/1999/xlink" version="1.1" class="highcharts-root" style="font-family:&quot;Lucida Grande&quot;, &quot;Lucida Sans Unicode&quot;, Arial, Helvetica, sans-serif;font-size:12px;" xmlns="http://www.w3.org/2000/svg" width="600" height="400" viewBox="0 0 600 400" aria-hidden="false" aria-label="Interactive chart"><desc aria-hidden="true">Created with Highcharts 8.2.2</desc><defs aria-hidden="true"><clipPath id="highcharts-umsl0sc-72-"><rect x="0" y="0" width="580" height="273" fill="none"></rect></clipPath></defs><rect fill="#ffffff" class="highcharts-background" x="0" y="0" width="600" height="400" rx="0" ry="0" aria-hidden="true"></rect><rect fill="none" class="highcharts-plot-background" x="10" y="112" width="580" height="273" aria-hidden="true"></rect><g class="highcharts-grid highcharts-xaxis-grid" data-z-index="1" aria-hidden="true"><path fill="none" stroke="#e6e6e6" stroke-width="1" data-z-index="1" class="highcharts-grid-line" d="M 15.5 112 L 15.5 385" opacity="1"></path><path fill="none" stroke="#e6e6e6" stroke-width="1" data-z-index="1" class="highcharts-grid-line" d="M 147.5 112 L 147.5 385" opacity="1"></path><path fill="none" stroke="#e6e6e6" stroke-width="1" data-z-index="1" class="highcharts-grid-line" d="M 280.5 112 L 280.5 385" opacity="1"></path><path fill="none" stroke="#e6e6e6" stroke-width="1" data-z-index="1" class="highcharts-grid-line" d="M 413.5 112 L 413.5 385" opacity="1"></path><path fill="none" stroke="#e6e6e6" stroke-width="1" data-z-index="1" class="highcharts-grid-line" d="M 545.5 112 L 545.5 385" opacity="1"></path></g><g class="highcharts-grid highcharts-yaxis-grid" data-z-index="1" aria-hidden="true"><path fill="none" stroke="#e6e6e6" stroke-width="1" data-z-index="1" class="highcharts-grid-line" d="M 10 385.5 L 590 385.5" opacity="1"></path><path fill="none" stroke="#e6e6e6" stroke-width="1" data-z-index="1" class="highcharts-grid-line" d="M 10 317.5 L 590 317.5" opacity="1"></path><path fill="none" stroke="#e6e6e6" stroke-width="1" data-z-index="1" class="highcharts-grid-line" d="M 10 249.5 L 590 249.5" opacity="1"></path><path fill="none" stroke="#e6e6e6" stroke-width="1" data-z-index="1" class="highcharts-grid-line" d="M 10 180.5 L 590 180.5" opacity="1"></path><path fill="none" stroke="#e6e6e6" stroke-width="1" data-z-index="1" class="highcharts-grid-line" d="M 10 111.5 L 590 111.5" opacity="1"></path></g><g class="highcharts-grid highcharts-yaxis-grid" data-z-index="1" aria-hidden="true"><path fill="none" data-z-index="1" class="highcharts-grid-line" d="M 10 385.5 L 590 385.5" opacity="1"></path><path fill="none" data-z-index="1" class="highcharts-grid-line" d="M 10 317.5 L 590 317.5" opacity="1"></path><path fill="none" data-z-index="1" class="highcharts-grid-line" d="M 10 249.5 L 590 249.5" opacity="1"></path><path fill="none" data-z-index="1" class="highcharts-grid-line" d="M 10 180.5 L 590 180.5" opacity="1"></path><path fill="none" data-z-index="1" class="highcharts-grid-line" d="M 10 112.5 L 590 112.5" opacity="1"></path></g><rect fill="none" class="highcharts-plot-border" data-z-index="1" x="10" y="112" width="580" height="273" aria-hidden="true"></rect><g class="highcharts-axis highcharts-xaxis" data-z-index="2" aria-hidden="true"><path fill="none" class="highcharts-axis-line" stroke="#ccd6eb" stroke-width="1" data-z-index="7" d="M 10 385.5 L 590 385.5"></path></g><g class="highcharts-axis highcharts-yaxis" data-z-index="2" aria-hidden="true"><path fill="none" class="highcharts-axis-line" data-z-index="7" d="M 10 112 L 10 385"></path></g><g class="highcharts-axis highcharts-yaxis" data-z-index="2" aria-hidden="true"><path fill="none" class="highcharts-axis-line" data-z-index="7" d="M 590 112 L 590 385"></path></g><g class="highcharts-series-group" data-z-index="3" aria-hidden="false"><g class="highcharts-series highcharts-series-0 highcharts-line-series highcharts-color-0" data-z-index="0.1" opacity="1" transform="translate(10,112) scale(1 1)" clip-path="url(#highcharts-umsl0sc-72-)" aria-hidden="true"><path fill="none" d="M 5.6862745098039 132.507375 L 24.640522875817 115.75882499999997 L 43.59477124183 102.88004999999998 L 62.549019607843 127.92779999999999 L 81.503267973856 158.03969999999998 L 100.45751633987 211.882125 L 119.41176470588 231.278775 L 138.3660130719 215.444775 L 157.32026143791 186.411225 L 176.27450980392 165.922575 L 195.22875816993 179.7978 L 214.18300653595 173.63482500000003 L 233.13725490196 210.230475 L 252.09150326797 228.671625 L 271.04575163399 216.413925 L 290 167.40359999999998 L 308.95424836601 147.672525 L 327.90849673203 125.27287499999997 L 346.86274509804 134.6709 L 365.81699346405 185.32605 L 384.77124183007 180.45299999999997 L 403.72549019608 141.09322500000002 L 422.67973856209 116.38672499999998 L 441.6339869281 107.97832499999998 L 460.58823529412 123.27314999999999 L 479.54248366013 129.9207 L 498.49673202614 189.8988 L 517.45098039216 212.155125 L 536.40522875817 156.449475 L 555.35947712418 126.419475 L 574.3137254902 123.94199999999998" class="highcharts-graph" data-z-index="1" stroke="#7cb5ec" stroke-width="4" stroke-linejoin="round" stroke-linecap="round"></path></g><g class="highcharts-markers highcharts-series-0 highcharts-line-series highcharts-color-0" data-z-index="0.1" opacity="1" transform="translate(10,112) scale(1 1)" clip-path="none" aria-hidden="false" role="region" tabindex="-1" style="outline: currentcolor none 0px;" aria-label="Users, line 1 of 2 with 31 data points. Y axis, values"><path fill="#7cb5ec" d="M 5 137 A 4 4 0 1 1 5.0039999993333355 136.99999800000018 Z" stroke="#ffffff" stroke-width="1" opacity="1" class="highcharts-point highcharts-color-0" tabindex="-1" style="outline: currentcolor none 0px;" role="img" aria-label="1. Monday, Dec 18, 2017, 40.585. Users."></path><path fill="#7cb5ec" d="M 24 120 A 4 4 0 1 1 24.003999999333335 119.99999800000016 Z" stroke="#ffffff" stroke-width="1" opacity="1" class="highcharts-point highcharts-color-0" tabindex="-1" style="outline: currentcolor none 0px;" role="img" aria-label="2. Tuesday, Dec 19, 2017, 43.039. Users."></path><path fill="#7cb5ec" d="M 43 107 A 4 4 0 1 1 43.00399999933334 106.99999800000016 Z" stroke="#ffffff" stroke-width="1" opacity="1" class="highcharts-point highcharts-color-0" tabindex="-1" style="outline: currentcolor none 0px;" role="img" aria-label="3. Wednesday, Dec 20, 2017, 44.926. Users."></path><path fill="#7cb5ec" d="M 62 132 A 4 4 0 1 1 62.00399999933334 131.99999800000018 Z" stroke="#ffffff" stroke-width="1" opacity="1" class="highcharts-point highcharts-color-0" tabindex="-1" style="outline: currentcolor none 0px;" role="img" aria-label="4. Thursday, Dec 21, 2017, 41.256. Users."></path><path fill="#7cb5ec" d="M 81 162 A 4 4 0 1 1 81.00399999933333 161.99999800000018 Z" stroke="#ffffff" stroke-width="1" opacity="1" class="highcharts-point highcharts-color-0" tabindex="-1" style="outline: currentcolor none 0px;" role="img" aria-label="5. Friday, Dec 22, 2017, 36.844. Users."></path><path fill="#7cb5ec" d="M 100 216 A 4 4 0 1 1 100.00399999933333 215.99999800000018 Z" stroke="#ffffff" stroke-width="1" opacity="1" class="highcharts-point highcharts-color-0" tabindex="-1" style="outline: currentcolor none 0px;" role="img" aria-label="6. Saturday, Dec 23, 2017, 28.955. Users."></path><path fill="#7cb5ec" d="M 119 235 A 4 4 0 1 1 119.00399999933333 234.99999800000018 Z" stroke="#ffffff" stroke-width="1" opacity="1" class="highcharts-point highcharts-color-0" tabindex="-1" style="outline: currentcolor none 0px;" role="img" aria-label="7. Sunday, Dec 24, 2017, 26.113. Users."></path><path fill="#7cb5ec" d="M 138 219 A 4 4 0 1 1 138.00399999933333 218.99999800000018 Z" stroke="#ffffff" stroke-width="1" opacity="1" class="highcharts-point highcharts-color-0" tabindex="-1" style="outline: currentcolor none 0px;" role="img" aria-label="8. Monday, Dec 25, 2017, 28.433. Users."></path><path fill="#7cb5ec" d="M 157 190 A 4 4 0 1 1 157.00399999933333 189.99999800000018 Z" stroke="#ffffff" stroke-width="1" opacity="1" class="highcharts-point highcharts-color-0" tabindex="-1" style="outline: currentcolor none 0px;" role="img" aria-label="9. Tuesday, Dec 26, 2017, 32.687. Users."></path><path fill="#7cb5ec" d="M 176 170 A 4 4 0 1 1 176.00399999933333 169.99999800000018 Z" stroke="#ffffff" stroke-width="1" opacity="1" class="highcharts-point highcharts-color-0" tabindex="-1" style="outline: currentcolor none 0px;" role="img" aria-label="10. Wednesday, Dec 27, 2017, 35.689. Users."></path><path fill="#7cb5ec" d="M 195 184 A 4 4 0 1 1 195.00399999933333 183.99999800000018 Z" stroke="#ffffff" stroke-width="1" opacity="1" class="highcharts-point highcharts-color-0" tabindex="-1" style="outline: currentcolor none 0px;" role="img" aria-label="11. Thursday, Dec 28, 2017, 33.656. Users."></path><path fill="#7cb5ec" d="M 214 178 A 4 4 0 1 1 214.00399999933333 177.99999800000018 Z" stroke="#ffffff" stroke-width="1" opacity="1" class="highcharts-point highcharts-color-0" tabindex="-1" style="outline: currentcolor none 0px;" role="img" aria-label="12. Friday, Dec 29, 2017, 34.559. Users."></path><path fill="#7cb5ec" d="M 233 214 A 4 4 0 1 1 233.00399999933333 213.99999800000018 Z" stroke="#ffffff" stroke-width="1" opacity="1" class="highcharts-point highcharts-color-0" tabindex="-1" style="outline: currentcolor none 0px;" role="img" aria-label="13. Saturday, Dec 30, 2017, 29.197. Users."></path><path fill="#7cb5ec" d="M 252 233 A 4 4 0 1 1 252.00399999933333 232.99999800000018 Z" stroke="#ffffff" stroke-width="1" opacity="1" class="highcharts-point highcharts-color-0" tabindex="-1" style="outline: currentcolor none 0px;" role="img" aria-label="14. Sunday, Dec 31, 2017, 26.495. Users."></path><path fill="#7cb5ec" d="M 271 220 A 4 4 0 1 1 271.00399999933336 219.99999800000018 Z" stroke="#ffffff" stroke-width="1" opacity="1" class="highcharts-point highcharts-color-0" tabindex="-1" style="outline: currentcolor none 0px;" role="img" aria-label="15. Monday, Jan  1, 2018, 28.291. Users."></path><path fill="#7cb5ec" d="M 290 171 A 4 4 0 1 1 290.00399999933336 170.99999800000018 Z" stroke="#ffffff" stroke-width="1" opacity="1" class="highcharts-point highcharts-color-0" tabindex="-1" style="outline: currentcolor none 0px;" role="img" aria-label="16. Tuesday, Jan  2, 2018, 35.472. Users."></path><path fill="#7cb5ec" d="M 308 152 A 4 4 0 1 1 308.00399999933336 151.99999800000018 Z" stroke="#ffffff" stroke-width="1" opacity="1" class="highcharts-point highcharts-color-0" tabindex="-1" style="outline: currentcolor none 0px;" role="img" aria-label="17. Wednesday, Jan  3, 2018, 38.363. Users."></path><path fill="#7cb5ec" d="M 327 129 A 4 4 0 1 1 327.00399999933336 128.99999800000018 Z" stroke="#ffffff" stroke-width="1" opacity="1" class="highcharts-point highcharts-color-0" tabindex="-1" style="outline: currentcolor none 0px;" role="img" aria-label="18. Thursday, Jan  4, 2018, 41.645. Users."></path><path fill="#7cb5ec" d="M 346 139 A 4 4 0 1 1 346.00399999933336 138.99999800000018 Z" stroke="#ffffff" stroke-width="1" opacity="1" class="highcharts-point highcharts-color-0" tabindex="-1" style="outline: currentcolor none 0px;" role="img" aria-label="19. Friday, Jan  5, 2018, 40.268. Users."></path><path fill="#7cb5ec" d="M 365 189 A 4 4 0 1 1 365.00399999933336 188.99999800000018 Z" stroke="#ffffff" stroke-width="1" opacity="1" class="highcharts-point highcharts-color-0" tabindex="-1" style="outline: currentcolor none 0px;" role="img" aria-label="20. Saturday, Jan  6, 2018, 32.846. Users."></path><path fill="#7cb5ec" d="M 384 184 A 4 4 0 1 1 384.00399999933336 183.99999800000018 Z" stroke="#ffffff" stroke-width="1" opacity="1" class="highcharts-point highcharts-color-0" tabindex="-1" style="outline: currentcolor none 0px;" role="img" aria-label="21. Sunday, Jan  7, 2018, 33.56. Users."></path><path fill="#7cb5ec" d="M 403 145 A 4 4 0 1 1 403.00399999933336 144.99999800000018 Z" stroke="#ffffff" stroke-width="1" opacity="1" class="highcharts-point highcharts-color-0" tabindex="-1" style="outline: currentcolor none 0px;" role="img" aria-label="22. Monday, Jan  8, 2018, 39.327. Users."></path><path fill="#7cb5ec" d="M 422 120 A 4 4 0 1 1 422.00399999933336 119.99999800000016 Z" stroke="#ffffff" stroke-width="1" opacity="1" class="highcharts-point highcharts-color-0" tabindex="-1" style="outline: currentcolor none 0px;" role="img" aria-label="23. Tuesday, Jan  9, 2018, 42.947. Users."></path><path fill="#7cb5ec" d="M 441 112 A 4 4 0 1 1 441.00399999933336 111.99999800000016 Z" stroke="#ffffff" stroke-width="1" opacity="1" class="highcharts-point highcharts-color-0" tabindex="-1" style="outline: currentcolor none 0px;" role="img" aria-label="24. Wednesday, Jan 10, 2018, 44.179. Users."></path><path fill="#7cb5ec" d="M 460 127 A 4 4 0 1 1 460.00399999933336 126.99999800000016 Z" stroke="#ffffff" stroke-width="1" opacity="1" class="highcharts-point highcharts-color-0" tabindex="-1" style="outline: currentcolor none 0px;" role="img" aria-label="25. Thursday, Jan 11, 2018, 41.938. Users."></path><path fill="#7cb5ec" d="M 479 134 A 4 4 0 1 1 479.00399999933336 133.99999800000018 Z" stroke="#ffffff" stroke-width="1" opacity="1" class="highcharts-point highcharts-color-0" tabindex="-1" style="outline: currentcolor none 0px;" role="img" aria-label="26. Friday, Jan 12, 2018, 40.964. Users."></path><path fill="#7cb5ec" d="M 498 194 A 4 4 0 1 1 498.00399999933336 193.99999800000018 Z" stroke="#ffffff" stroke-width="1" opacity="1" class="highcharts-point highcharts-color-0" tabindex="-1" style="outline: currentcolor none 0px;" role="img" aria-label="27. Saturday, Jan 13, 2018, 32.176. Users."></path><path fill="#7cb5ec" d="M 517 216 A 4 4 0 1 1 517.0039999993334 215.99999800000018 Z" stroke="#ffffff" stroke-width="1" opacity="1" class="highcharts-point highcharts-color-0" tabindex="-1" style="outline: currentcolor none 0px;" role="img" aria-label="28. Sunday, Jan 14, 2018, 28.915. Users."></path><path fill="#7cb5ec" d="M 536 160 A 4 4 0 1 1 536.0039999993334 159.99999800000018 Z" stroke="#ffffff" stroke-width="1" opacity="1" class="highcharts-point highcharts-color-0" tabindex="-1" style="outline: currentcolor none 0px;" role="img" aria-label="29. Monday, Jan 15, 2018, 37.077. Users."></path><path fill="#7cb5ec" d="M 555 130 A 4 4 0 1 1 555.0039999993334 129.99999800000018 Z" stroke="#ffffff" stroke-width="1" opacity="1" class="highcharts-point highcharts-color-0" tabindex="-1" style="outline: currentcolor none 0px;" role="img" aria-label="30. Tuesday, Jan 16, 2018, 41.477. Users."></path><path fill="#7cb5ec" d="M 574 128 A 4 4 0 1 1 574.0039999993334 127.99999800000016 Z" stroke="#ffffff" stroke-width="1" opacity="1" class="highcharts-point highcharts-color-0" tabindex="-1" style="outline: currentcolor none 0px;" role="img" aria-label="31. Wednesday, Jan 17, 2018, 41.84. Users."></path></g><g class="highcharts-series highcharts-series-1 highcharts-line-series highcharts-color-1" data-z-index="0.1" opacity="1" transform="translate(10,112) scale(1 1)" clip-path="url(#highcharts-umsl0sc-72-)" aria-hidden="true"><path fill="none" d="M 5.6862745098039 79.504425 L 24.640522875817 58.01932499999998 L 43.59477124183 45.324824999999976 L 62.549019607843 74.95214999999999 L 81.503267973856 113.75909999999999 L 100.45751633987 181.41532500000002 L 119.41176470588 204.6135 L 138.3660130719 183.026025 L 157.32026143791 144.81285000000003 L 176.27450980392 118.98704999999998 L 195.22875816993 136.69109999999998 L 214.18300653595 133.67444999999998 L 233.13725490196 180.418875 L 252.09150326797 199.71314999999998 L 271.04575163399 185.48985 L 290 122.29717499999998 L 308.95424836601 97.92509999999999 L 327.90849673203 71.17109999999997 L 346.86274509804 82.33679999999998 L 365.81699346405 153.29632499999997 L 384.77124183007 146.553225 L 403.72549019608 89.76922499999998 L 422.67973856209 59.47304999999997 L 441.6339869281 46.10287500000001 L 460.58823529412 63.247275 L 479.54248366013 74.76105000000001 L 498.49673202614 156.25154999999998 L 517.45098039216 182.78714999999997 L 536.40522875817 107.8896 L 555.35947712418 70.89809999999997 L 574.3137254902 66.30487500000001" class="highcharts-graph" data-z-index="1" stroke="#434348" stroke-width="2" stroke-linejoin="round" stroke-linecap="round"></path></g><g class="highcharts-markers highcharts-series-1 highcharts-line-series highcharts-color-1" data-z-index="0.1" opacity="1" transform="translate(10,112) scale(1 1)" clip-path="none" aria-hidden="false" role="region" tabindex="-1" style="outline: currentcolor none 0px;" aria-label="Sessions, line 2 of 2 with 31 data points. Y axis, values"><path fill="#434348" d="M 5 76 L 9 80 L 5 84 L 1 80 Z" stroke="#ffffff" stroke-width="1" opacity="1" class="highcharts-point highcharts-color-1" tabindex="-1" style="outline: currentcolor none 0px;" role="img" aria-label="1. Monday, Dec 18, 2017, 48.351. Sessions."></path><path fill="#434348" d="M 24 54 L 28 58 L 24 62 L 20 58 Z" stroke="#ffffff" stroke-width="1" opacity="1" class="highcharts-point highcharts-color-1" tabindex="-1" style="outline: currentcolor none 0px;" role="img" aria-label="2. Tuesday, Dec 19, 2017, 51.499. Sessions."></path><path fill="#434348" d="M 43 41 L 47 45 L 43 49 L 39 45 Z" stroke="#ffffff" stroke-width="1" opacity="1" class="highcharts-point highcharts-color-1" tabindex="-1" style="outline: currentcolor none 0px;" role="img" aria-label="3. Wednesday, Dec 20, 2017, 53.359. Sessions."></path><path fill="#434348" d="M 62 71 L 66 75 L 62 79 L 58 75 Z" stroke="#ffffff" stroke-width="1" opacity="1" class="highcharts-point highcharts-color-1" tabindex="-1" style="outline: currentcolor none 0px;" role="img" aria-label="4. Thursday, Dec 21, 2017, 49.018. Sessions."></path><path fill="#434348" d="M 81 110 L 85 114 L 81 118 L 77 114 Z" stroke="#ffffff" stroke-width="1" opacity="1" class="highcharts-point highcharts-color-1" tabindex="-1" style="outline: currentcolor none 0px;" role="img" aria-label="5. Friday, Dec 22, 2017, 43.332. Sessions."></path><path fill="#434348" d="M 100 177 L 104 181 L 100 185 L 96 181 Z" stroke="#ffffff" stroke-width="1" opacity="1" class="highcharts-point highcharts-color-1" tabindex="-1" style="outline: currentcolor none 0px;" role="img" aria-label="6. Saturday, Dec 23, 2017, 33.419. Sessions."></path><path fill="#434348" d="M 119 201 L 123 205 L 119 209 L 115 205 Z" stroke="#ffffff" stroke-width="1" opacity="1" class="highcharts-point highcharts-color-1" tabindex="-1" style="outline: currentcolor none 0px;" role="img" aria-label="7. Sunday, Dec 24, 2017, 30.02. Sessions."></path><path fill="#434348" d="M 138 179 L 142 183 L 138 187 L 134 183 Z" stroke="#ffffff" stroke-width="1" opacity="1" class="highcharts-point highcharts-color-1" tabindex="-1" style="outline: currentcolor none 0px;" role="img" aria-label="8. Monday, Dec 25, 2017, 33.183. Sessions."></path><path fill="#434348" d="M 157 141 L 161 145 L 157 149 L 153 145 Z" stroke="#ffffff" stroke-width="1" opacity="1" class="highcharts-point highcharts-color-1" tabindex="-1" style="outline: currentcolor none 0px;" role="img" aria-label="9. Tuesday, Dec 26, 2017, 38.782. Sessions."></path><path fill="#434348" d="M 176 115 L 180 119 L 176 123 L 172 119 Z" stroke="#ffffff" stroke-width="1" opacity="1" class="highcharts-point highcharts-color-1" tabindex="-1" style="outline: currentcolor none 0px;" role="img" aria-label="10. Wednesday, Dec 27, 2017, 42.566. Sessions."></path><path fill="#434348" d="M 195 133 L 199 137 L 195 141 L 191 137 Z" stroke="#ffffff" stroke-width="1" opacity="1" class="highcharts-point highcharts-color-1" tabindex="-1" style="outline: currentcolor none 0px;" role="img" aria-label="11. Thursday, Dec 28, 2017, 39.972. Sessions."></path><path fill="#434348" d="M 214 130 L 218 134 L 214 138 L 210 134 Z" stroke="#ffffff" stroke-width="1" opacity="1" class="highcharts-point highcharts-color-1" tabindex="-1" style="outline: currentcolor none 0px;" role="img" aria-label="12. Friday, Dec 29, 2017, 40.414. Sessions."></path><path fill="#434348" d="M 233 176 L 237 180 L 233 184 L 229 180 Z" stroke="#ffffff" stroke-width="1" opacity="1" class="highcharts-point highcharts-color-1" tabindex="-1" style="outline: currentcolor none 0px;" role="img" aria-label="13. Saturday, Dec 30, 2017, 33.565. Sessions."></path><path fill="#434348" d="M 252 196 L 256 200 L 252 204 L 248 200 Z" stroke="#ffffff" stroke-width="1" opacity="1" class="highcharts-point highcharts-color-1" tabindex="-1" style="outline: currentcolor none 0px;" role="img" aria-label="14. Sunday, Dec 31, 2017, 30.738. Sessions."></path><path fill="#434348" d="M 271 181 L 275 185 L 271 189 L 267 185 Z" stroke="#ffffff" stroke-width="1" opacity="1" class="highcharts-point highcharts-color-1" tabindex="-1" style="outline: currentcolor none 0px;" role="img" aria-label="15. Monday, Jan  1, 2018, 32.822. Sessions."></path><path fill="#434348" d="M 290 118 L 294 122 L 290 126 L 286 122 Z" stroke="#ffffff" stroke-width="1" opacity="1" class="highcharts-point highcharts-color-1" tabindex="-1" style="outline: currentcolor none 0px;" role="img" aria-label="16. Tuesday, Jan  2, 2018, 42.081. Sessions."></path><path fill="#434348" d="M 308 94 L 312 98 L 308 102 L 304 98 Z" stroke="#ffffff" stroke-width="1" opacity="1" class="highcharts-point highcharts-color-1" tabindex="-1" style="outline: currentcolor none 0px;" role="img" aria-label="17. Wednesday, Jan  3, 2018, 45.652. Sessions."></path><path fill="#434348" d="M 327 67 L 331 71 L 327 75 L 323 71 Z" stroke="#ffffff" stroke-width="1" opacity="1" class="highcharts-point highcharts-color-1" tabindex="-1" style="outline: currentcolor none 0px;" role="img" aria-label="18. Thursday, Jan  4, 2018, 49.572. Sessions."></path><path fill="#434348" d="M 346 78 L 350 82 L 346 86 L 342 82 Z" stroke="#ffffff" stroke-width="1" opacity="1" class="highcharts-point highcharts-color-1" tabindex="-1" style="outline: currentcolor none 0px;" role="img" aria-label="19. Friday, Jan  5, 2018, 47.936. Sessions."></path><path fill="#434348" d="M 365 149 L 369 153 L 365 157 L 361 153 Z" stroke="#ffffff" stroke-width="1" opacity="1" class="highcharts-point highcharts-color-1" tabindex="-1" style="outline: currentcolor none 0px;" role="img" aria-label="20. Saturday, Jan  6, 2018, 37.539. Sessions."></path><path fill="#434348" d="M 384 143 L 388 147 L 384 151 L 380 147 Z" stroke="#ffffff" stroke-width="1" opacity="1" class="highcharts-point highcharts-color-1" tabindex="-1" style="outline: currentcolor none 0px;" role="img" aria-label="21. Sunday, Jan  7, 2018, 38.527. Sessions."></path><path fill="#434348" d="M 403 86 L 407 90 L 403 94 L 399 90 Z" stroke="#ffffff" stroke-width="1" opacity="1" class="highcharts-point highcharts-color-1" tabindex="-1" style="outline: currentcolor none 0px;" role="img" aria-label="22. Monday, Jan  8, 2018, 46.847. Sessions."></path><path fill="#434348" d="M 422 55 L 426 59 L 422 63 L 418 59 Z" stroke="#ffffff" stroke-width="1" opacity="1" class="highcharts-point highcharts-color-1" tabindex="-1" style="outline: currentcolor none 0px;" role="img" aria-label="23. Tuesday, Jan  9, 2018, 51.286. Sessions."></path><path fill="#434348" d="M 441 42 L 445 46 L 441 50 L 437 46 Z" stroke="#ffffff" stroke-width="1" opacity="1" class="highcharts-point highcharts-color-1" tabindex="-1" style="outline: currentcolor none 0px;" role="img" aria-label="24. Wednesday, Jan 10, 2018, 53.245. Sessions."></path><path fill="#434348" d="M 460 59 L 464 63 L 460 67 L 456 63 Z" stroke="#ffffff" stroke-width="1" opacity="1" class="highcharts-point highcharts-color-1" tabindex="-1" style="outline: currentcolor none 0px;" role="img" aria-label="25. Thursday, Jan 11, 2018, 50.733. Sessions."></path><path fill="#434348" d="M 479 71 L 483 75 L 479 79 L 475 75 Z" stroke="#ffffff" stroke-width="1" opacity="1" class="highcharts-point highcharts-color-1" tabindex="-1" style="outline: currentcolor none 0px;" role="img" aria-label="26. Friday, Jan 12, 2018, 49.046. Sessions."></path><path fill="#434348" d="M 498 152 L 502 156 L 498 160 L 494 156 Z" stroke="#ffffff" stroke-width="1" opacity="1" class="highcharts-point highcharts-color-1" tabindex="-1" style="outline: currentcolor none 0px;" role="img" aria-label="27. Saturday, Jan 13, 2018, 37.106. Sessions."></path><path fill="#434348" d="M 517 179 L 521 183 L 517 187 L 513 183 Z" stroke="#ffffff" stroke-width="1" opacity="1" class="highcharts-point highcharts-color-1" tabindex="-1" style="outline: currentcolor none 0px;" role="img" aria-label="28. Sunday, Jan 14, 2018, 33.218. Sessions."></path><path fill="#434348" d="M 536 104 L 540 108 L 536 112 L 532 108 Z" stroke="#ffffff" stroke-width="1" opacity="1" class="highcharts-point highcharts-color-1" tabindex="-1" style="outline: currentcolor none 0px;" role="img" aria-label="29. Monday, Jan 15, 2018, 44.192. Sessions."></path><path fill="#434348" d="M 555 67 L 559 71 L 555 75 L 551 71 Z" stroke="#ffffff" stroke-width="1" opacity="1" class="highcharts-point highcharts-color-1" tabindex="-1" style="outline: currentcolor none 0px;" role="img" aria-label="30. Tuesday, Jan 16, 2018, 49.612. Sessions."></path><path fill="#434348" d="M 574 62 L 578 66 L 574 70 L 570 66 Z" stroke="#ffffff" stroke-width="1" opacity="1" class="highcharts-point highcharts-color-1" tabindex="-1" style="outline: currentcolor none 0px;" role="img" aria-label="31. Wednesday, Jan 17, 2018, 50.285. Sessions."></path></g></g><g class="highcharts-label highcharts-series-label highcharts-series-label-0 highcharts-color-0" opacity="1" data-z-index="3" transform="translate(28,239)" aria-hidden="true"><path fill="none" class="highcharts-label-box" d="M 0 0" stroke="#7cb5ec" stroke-width="1"></path><text x="0" data-z-index="1" style="color:#7cb5ec;font-weight:bold;fill:#7cb5ec;" y="12">Users</text></g><g class="highcharts-label highcharts-series-label highcharts-series-label-1 highcharts-color-1" opacity="1" data-z-index="3" transform="translate(529,157)" aria-hidden="true"><path fill="none" class="highcharts-label-box" d="M 0 0" stroke="#434348" stroke-width="1"></path><text x="0" data-z-index="1" style="color:#434348;font-weight:bold;fill:#434348;" y="12">Sessions</text></g><text x="300" text-anchor="middle" class="highcharts-title" data-z-index="4" style="color:#333333;font-size:18px;fill:#333333;" y="24" aria-hidden="true"><tspan>Daily sessions at www.highcharts.com</tspan></text><text x="300" text-anchor="middle" class="highcharts-subtitle" data-z-index="4" style="color:#666666;fill:#666666;" y="52" aria-hidden="true"><tspan>Source: Google Analytics</tspan></text><text x="10" text-anchor="start" class="highcharts-caption" data-z-index="4" style="color:#666666;fill:#666666;" y="397" aria-hidden="true"></text><g class="highcharts-legend" data-z-index="7" transform="translate(10,71)" aria-hidden="true"><rect fill="none" class="highcharts-legend-box" rx="0" ry="0" x="0" y="0" width="163" height="29" visibility="visible"></rect><g data-z-index="1"><g><g class="highcharts-legend-item highcharts-line-series highcharts-color-0 highcharts-series-0" data-z-index="1" transform="translate(8,3)"><path fill="none" d="M 0 11 L 16 11" class="highcharts-graph" stroke="#7cb5ec" stroke-width="4"></path><path fill="#7cb5ec" d="M 8 15 A 4 4 0 1 1 8.003999999333336 14.999998000000167 Z" class="highcharts-point" stroke="#ffffff" stroke-width="1" opacity="1"></path><text x="21" style="color:#333333;cursor:pointer;font-size:12px;font-weight:bold;fill:#333333;" text-anchor="start" data-z-index="2" y="15"><tspan>Users</tspan></text></g><g class="highcharts-legend-item highcharts-line-series highcharts-color-1 highcharts-series-1" data-z-index="1" transform="translate(82.33333206176758,3)"><path fill="none" d="M 0 11 L 16 11" class="highcharts-graph" stroke="#434348" stroke-width="2"></path><path fill="#434348" d="M 8 7 L 12 11 L 8 15 L 4 11 Z" class="highcharts-point" stroke="#ffffff" stroke-width="1" opacity="1"></path><text x="21" y="15" style="color:#333333;cursor:pointer;font-size:12px;font-weight:bold;fill:#333333;" text-anchor="start" data-z-index="2"><tspan>Sessions</tspan></text></g></g></g></g><g class="highcharts-axis-labels highcharts-xaxis-labels" data-z-index="7" aria-hidden="true"><text x="18.686274509804" style="color:#666666;cursor:default;font-size:11px;fill:#666666;" text-anchor="start" transform="translate(0,0)" y="382" opacity="1"><tspan>18. Dec</tspan></text><text x="151.3660130719" style="color:#666666;cursor:default;font-size:11px;fill:#666666;" text-anchor="start" transform="translate(0,0)" y="382" opacity="1"><tspan>25. Dec</tspan></text><text x="284.04575163399" style="color:#666666;cursor:default;font-size:11px;fill:#666666;" text-anchor="start" transform="translate(0,0)" y="382" opacity="1"><tspan>1. Jan</tspan></text><text x="416.72549019608" style="color:#666666;cursor:default;font-size:11px;fill:#666666;" text-anchor="start" transform="translate(0,0)" y="382" opacity="1"><tspan>8. Jan</tspan></text><text x="549.40522875817" style="color:#666666;cursor:default;font-size:11px;fill:#666666;" text-anchor="start" transform="translate(0,0)" y="382" opacity="1"><tspan>15. Jan</tspan></text></g><g class="highcharts-axis-labels highcharts-yaxis-labels" data-z-index="7" aria-hidden="true"><text x="0" style="color:#666666;cursor:default;font-size:11px;fill:#666666;" text-anchor="start" transform="translate(0,0)" y="-9999">20</text><text x="13" style="color:#666666;cursor:default;font-size:11px;fill:#666666;" text-anchor="start" transform="translate(0,0)" y="333" opacity="1">30</text><text x="13" style="color:#666666;cursor:default;font-size:11px;fill:#666666;" text-anchor="start" transform="translate(0,0)" y="265" opacity="1">40</text><text x="13" style="color:#666666;cursor:default;font-size:11px;fill:#666666;" text-anchor="start" transform="translate(0,0)" y="196" opacity="1">50</text><text x="13" style="color:#666666;cursor:default;font-size:11px;fill:#666666;" text-anchor="start" transform="translate(0,0)" y="128" opacity="1">60</text></g><g class="highcharts-axis-labels highcharts-yaxis-labels" data-z-index="7" aria-hidden="true"><text x="0" style="color:#666666;cursor:default;font-size:11px;fill:#666666;" text-anchor="end" transform="translate(0,0)" y="-9999">20</text><text x="587" style="color:#666666;cursor:default;font-size:11px;fill:#666666;" text-anchor="end" transform="translate(0,0)" y="333" opacity="1">30</text><text x="587" style="color:#666666;cursor:default;font-size:11px;fill:#666666;" text-anchor="end" transform="translate(0,0)" y="265" opacity="1">40</text><text x="587" style="color:#666666;cursor:default;font-size:11px;fill:#666666;" text-anchor="end" transform="translate(0,0)" y="196" opacity="1">50</text><text x="587" style="color:#666666;cursor:default;font-size:11px;fill:#666666;" text-anchor="end" transform="translate(0,0)" y="128" opacity="1">60</text></g><text x="590" class="highcharts-credits" text-anchor="end" data-z-index="8" style="cursor:pointer;color:#999999;font-size:9px;fill:#999999;" y="395" aria-label="Chart credits: Highcharts.com" aria-hidden="false">Highcharts.com</text></svg>